Coordinates
version=1
nRows=16
nColumns=40
inDegrees=yes

Units are S.I. units (second, meters, Newtons, ...)
Angles are in degrees.

endheader
time	pelvis_tilt	pelvis_list	pelvis_rotation	pelvis_tx	pelvis_ty	pelvis_tz	hip_flexion_r	hip_adduction_r	hip_rotation_r	knee_angle_r	knee_angle_r_beta	ankle_angle_r	subtalar_angle_r	mtp_angle_r	hip_flexion_l	hip_adduction_l	hip_rotation_l	knee_angle_l	knee_angle_l_beta	ankle_angle_l	subtalar_angle_l	mtp_angle_l	lumbar_extension	lumbar_bending	lumbar_rotation	arm_flex_r	arm_add_r	arm_rot_r	elbow_flex_r	pro_sup_r	wrist_flex_r	wrist_dev_r	arm_flex_l	arm_add_l	arm_rot_l	elbow_flex_l	pro_sup_l	wrist_flex_l	wrist_dev_l
      0.00000000	    -18.41593820	     -3.93234564	     13.55080720	      0.00467157	      0.89878937	     -0.26867947	     42.59125421	     -1.77447015	    -10.80838966	     18.53939731	     18.53939731	      1.25201841	      0.00000000	      0.00000000	     -2.75405885	    -10.87203163	    -14.14159971	     18.99807615	     18.99807615	    -29.72860052	      0.00000000	      0.00000000	      5.83343664	      5.89291499	    -27.77692567	    -52.94103898	    -14.35365664	    -24.13379724	     82.88569291	     71.41304819	      0.00000000	      0.00000000	     -3.26571933	    -25.84330141	     12.57057533	    128.04095695	     69.66151213	      0.00000000	      0.00000000
      0.00666667	    -18.28095647	     -3.43475458	     12.72435316	      0.02443083	      0.89833466	     -0.26767369	     42.15887610	     -1.69138966	    -11.58738136	     18.05908582	     18.05908582	      1.34958118	      0.00000000	      0.00000000	     -3.48614238	    -10.33409731	    -13.80552751	     20.19514146	     20.19514146	    -29.97322102	      0.00000000	      0.00000000	      5.83765259	      5.71815213	    -26.85538068	    -52.56512779	    -14.24070526	    -24.38042033	     83.06294509	     71.48841552	      0.00000000	      0.00000000	     -4.01836306	    -26.08277450	     12.50069548	    127.88278918	     69.77914811	      0.00000000	      0.00000000
      0.01333333	    -17.85982452	     -2.93850443	     12.07160708	      0.04418300	      0.89782063	     -0.26681012	     41.22816854	     -1.60451405	    -12.33489479	     17.55098464	     17.55098464	      1.42210694	      0.00000000	      0.00000000	     -4.03262209	     -9.93820429	    -13.45177990	     22.26091906	     22.26091906	    -30.08864078	      0.00000000	      0.00000000	      5.50414757	      5.59016107	    -26.09604330	    -51.93109320	    -13.96655541	    -24.80455574	     83.26345581	     71.54721419	      0.00000000	      0.00000000	     -5.14291659	    -26.47532859	     12.44488983	    127.70870669	     69.91967949	      0.00000000	      0.00000000
      0.02000000	    -17.19646738	     -2.55493203	     11.45280508	      0.06310460	      0.89721688	     -0.26609145	     40.01479629	     -1.42909598	    -12.67109148	     17.34869383	     17.34869383	      1.34404157	      0.00000000	      0.00000000	     -4.33844221	     -9.71640335	    -12.90308938	     25.16231263	     25.16231263	    -29.74537987	      0.00000000	      0.00000000	      4.76720010	      5.80636918	    -25.49676959	    -50.81279285	    -13.64446695	    -25.30713789	     83.38409308	     71.58251249	      0.00000000	      0.00000000	     -6.34619381	    -26.90660082	     12.22776676	    127.53738267	     70.06870296	      0.00000000	      0.00000000
      0.02666667	    -16.23908593	     -2.43886898	     11.19839713	      0.08178027	      0.89632636	     -0.26530906	     38.52584635	     -1.15720987	    -13.95802828	     17.52956731	     17.52956731	      1.10982342	      0.00000000	      0.00000000	     -4.23448362	    -10.15271398	    -12.54609627	     29.48888320	     29.48888320	    -27.61140571	      0.00000000	      0.00000000	      3.74342834	      6.09324503	    -25.49261961	    -49.07054227	    -13.40161167	    -26.02639366	     83.26331181	     71.66326859	      0.00000000	      0.00000000	     -7.60887762	    -27.19457948	     11.12655456	    127.95834702	     70.38107530	      0.00000000	      0.00000000
      0.03333333	    -16.11495445	     -2.13928436	     10.00133706	      0.10144494	      0.89436321	     -0.26443117	     37.82455866	     -0.75424384	    -14.44823931	     17.83485715	     17.83485715	      1.06434944	      0.00000000	      0.00000000	     -4.60171658	     -9.35872975	    -11.55805592	     31.00079464	     31.00079464	    -27.48264516	      0.00000000	      0.00000000	      3.69441127	      6.25339283	    -23.99176586	    -48.12384906	    -13.61734183	    -25.99848522	     83.32210588	     71.67301779	      0.00000000	      0.00000000	     -9.10296235	    -27.00351436	     11.31984268	    127.34605218	     70.41906118	      0.00000000	      0.00000000
      0.04000000	    -15.58959221	     -1.68998842	      8.81296734	      0.12023137	      0.89256042	     -0.26318456	     36.83763397	     -0.42466569	    -14.30021678	     18.62287531	     18.62287531	      0.88659232	      0.00000000	      0.00000000	     -4.76574276	     -8.55764494	    -10.50041796	     33.65534338	     33.65534338	    -27.22539700	      0.00000000	      0.00000000	      3.08750300	      6.34666340	    -22.64704285	    -46.66846949	    -13.81682774	    -25.95401195	     83.18420742	     71.66036134	      0.00000000	      0.00000000	    -10.62308126	    -26.78457070	     11.30089485	    126.38826974	     70.44771266	      0.00000000	      0.00000000
      0.04666667	    -14.93537265	     -1.14383930	      7.71309063	      0.13889774	      0.89060328	     -0.26225337	     35.70503340	     -0.30037286	    -14.20842433	     19.72597751	     19.72597751	      0.60799879	      0.00000000	      0.00000000	     -4.69709077	     -7.72426862	     -9.74243092	     36.91939220	     36.91939220	    -26.77003812	      0.00000000	      0.00000000	      2.25574609	      6.31421791	    -21.36608940	    -44.89991358	    -13.97424171	    -25.82846278	     82.86437594	     71.62942584	      0.00000000	      0.00000000	    -11.97087460	    -26.57792253	     10.99657607	    125.40374017	     70.47164700	      0.00000000	      0.00000000
      0.05333333	    -14.07518553	     -0.58021683	      6.95699755	      0.15695964	      0.88829221	     -0.26183578	     34.46158798	     -0.46082093	    -13.72408444	     21.32201956	     21.32201956	      0.20751795	      0.00000000	      0.00000000	     -4.26877441	     -7.23773693	     -9.56347399	     41.21773700	     41.21773700	    -25.81136118	      0.00000000	      0.00000000	      1.23429298	      6.21502218	    -20.42580040	    -42.70334560	    -14.06957032	    -25.70461455	     82.16144725	     71.56380985	      0.00000000	      0.00000000	    -13.25810265	    -26.23442733	     10.20260574	    124.39310760	     70.50910669	      0.00000000	      0.00000000
      0.06000000	    -13.72130537	     -0.21583839	      5.71796456	      0.17647950	      0.88513460	     -0.26079942	     33.32995964	     -0.16386332	    -13.61154842	     22.24596587	     22.24596587	      0.16068654	      0.00000000	      0.00000000	     -3.89461604	     -6.43720408	     -9.37036796	     44.19405825	     44.19405825	    -25.22440645	      0.00000000	      0.00000000	      0.84688887	      6.27744080	    -19.05820071	    -41.02410383	    -14.32588447	    -25.54382308	     81.84929634	     71.52844497	      0.00000000	      0.00000000	    -14.84351128	    -25.70423622	     10.01013146	    123.45714088	     70.53781263	      0.00000000	      0.00000000
      0.06666667	    -13.14911288	      0.24914021	      4.53687825	      0.19463145	      0.88198892	     -0.25973123	     32.15793762	     -0.19159766	    -13.53952411	     23.16489570	     23.16489570	      0.68530298	      0.00000000	      0.00000000	     -3.34062407	     -5.81931312	     -9.55748515	     47.66074993	     47.66074993	    -24.72635175	      0.00000000	      0.00000000	      0.12110784	      6.25870760	    -17.56114957	    -39.02202334	    -14.71079922	    -25.23091451	     81.53786500	     71.49381074	      0.00000000	      0.00000000	    -16.42450486	    -25.12982825	      9.88051349	    122.03099171	     70.61775185	      0.00000000	      0.00000000
      0.07333333	    -13.46068925	      0.05486088	      3.62206560	      0.21199021	      0.87625903	     -0.25830093	     32.35863087	      0.42518569	    -12.42095681	     25.45570846	     25.45570846	      4.57121248	      0.00000000	      0.00000000	     -0.88954068	     -6.61011970	    -10.65443572	     53.43344236	     53.43344236	    -20.58538642	      0.00000000	      0.00000000	      0.28957938	      6.58390722	    -18.63213925	    -35.03260978	    -17.17632721	    -21.20483454	     80.02229371	     71.16828926	      0.00000000	      0.00000000	    -20.82827823	    -22.79506443	      4.76733265	    122.30716363	     71.85523372	      0.00000000	      0.00000000
      0.08000000	    -12.70761338	      0.13878669	      2.39457298	      0.22997391	      0.87254505	     -0.25655075	     30.96818615	      1.05008070	    -12.04602542	     26.74710846	     26.74710846	      6.33320602	      0.00000000	      0.00000000	     -0.34058768	     -6.77829914	    -11.41765917	     56.95377833	     56.95377833	    -20.63438332	      0.00000000	      0.00000000	     -0.64036553	      6.86827188	    -16.99092071	    -32.68538628	    -17.22693719	    -21.00024747	     79.41920165	     71.06470473	      0.00000000	      0.00000000	    -21.84933645	    -22.47320142	      4.86225947	    120.33703374	     71.90775817	      0.00000000	      0.00000000
      0.08666667	    -12.13641808	      0.29699508	      1.01047139	      0.24843673	      0.86879506	     -0.25502464	     29.72173828	      1.49530624	    -12.10030823	     27.95336193	     27.95336193	      7.16759639	      0.00000000	      0.00000000	      0.27109888	     -6.46782371	    -11.68270435	     60.03790864	     60.03790864	    -20.61392226	      0.00000000	      0.00000000	     -1.32155066	      7.14381769	    -15.10487056	    -30.64354267	    -17.19951406	    -20.69756198	     79.26623964	     71.03425890	      0.00000000	      0.00000000	    -22.97295038	    -21.90555845	      5.11671807	    118.52450371	     71.88457772	      0.00000000	      0.00000000
      0.09333333	    -12.28929263	     -0.44410190	     -0.73787441	      0.26380240	      0.86359899	     -0.25274171	     30.81200559	      2.89822615	    -11.01145605	     31.82244733	     31.82244733	     10.74409616	      0.00000000	      0.00000000	      2.49425616	     -8.09541264	    -13.53650899	     65.03760223	     65.03760223	    -17.92870857	      0.00000000	      0.00000000	     -1.57116637	      8.33684234	    -13.00353195	    -27.64564206	    -17.67718931	    -19.66733522	     78.13711647	     70.89775708	      0.00000000	      0.00000000	    -23.69967390	    -20.98572397	      4.40838810	    116.28491227	     71.91011764	      0.00000000	      0.00000000
      0.10000000	    -11.83526056	     -0.74873602	     -2.02001321	      0.27886565	      0.86032151	     -0.25136370	     30.53811028	      3.91878229	     -9.06319399	     33.96925462	     33.96925462	     11.72985748	      0.00000000	      0.00000000	      4.17064790	     -8.57222708	    -13.56103094	     69.09003453	     69.09003453	    -17.44073939	      0.00000000	      0.00000000	     -2.57316222	      9.17622169	    -11.15761360	    -24.79703733	    -17.65543055	    -19.06365435	     77.62740065	     70.83843827	      0.00000000	      0.00000000	    -23.93985268	    -20.48813329	      4.34550485	    113.52606090	     71.87493517	      0.00000000	      0.00000000
